<?xml version="1.0" standalone="no"?>
<!DOCTYPE svg PUBLIC "-//W3C//DTD SVG 20010904//EN"
 "http://www.w3.org/TR/2001/REC-SVG-20010904/DTD/svg10.dtd">
<svg version="1.0" xmlns="http://www.w3.org/2000/svg"
 width="512.000000pt" height="512.000000pt" viewBox="0 0 512.000000 512.000000"
 preserveAspectRatio="xMidYMid meet">

<g transform="translate(0.000000,512.000000) scale(0.100000,-0.100000)"
fill="#000000" stroke="none">
<path fill="#EDC86B" d="M2315 5105 c-514 -56 -982 -250 -1372 -567 -392 -318 -698 -781 -838
-1269 -168 -584 -127 -1185 120 -1748 266 -608 792 -1111 1413 -1351 143 -56
325 -105 502 -137 131 -24 171 -26 410 -27 214 -1 287 3 380 18 154 24 341 70
463 112 101 36 295 119 311 134 4 4 -33 85 -83 180 -50 95 -89 176 -86 180 8
12 120 80 133 80 5 0 12 -12 15 -27 3 -16 17 -75 31 -132 15 -58 25 -110 22
-117 -2 -6 1 -17 7 -23 6 -6 8 -11 5 -11 -4 0 -14 7 -23 17 -33 32 -42 -25
-16 -99 7 -21 14 -38 15 -38 13 0 162 86 251 145 424 282 754 681 949 1148
124 294 183 577 193 917 16 568 -145 1093 -479 1563 -38 53 -75 97 -82 97 -7
0 -33 -15 -57 -34 -24 -18 -74 -53 -110 -77 -59 -40 -137 -100 -287 -221 -26
-21 -50 -38 -54 -38 -5 0 -8 -7 -8 -15 0 -8 9 -15 20 -15 15 0 20 -7 20 -25 0
-13 21 -56 46 -95 124 -192 248 -510 266 -685 2 -17 9 -30 16 -30 11 0 14 -50
15 -260 0 -284 -7 -347 -61 -525 -17 -52 -26 -96 -21 -98 11 -4 12 -22 2 -21
-20 3 -24 -2 -13 -16 10 -12 9 -21 -3 -47 -9 -18 -19 -46 -23 -63 -4 -16 -15
-41 -26 -54 -10 -13 -18 -31 -18 -39 0 -9 -10 -27 -22 -40 -13 -14 -17 -22
-10 -18 6 4 12 2 12 -3 0 -6 -7 -11 -15 -11 -9 0 -18 -8 -22 -18 -9 -25 -44
-62 -60 -62 -7 0 -13 -4 -13 -9 0 -5 -20 -36 -45 -69 -24 -34 -48 -76 -53 -94
-4 -18 -16 -34 -25 -36 -26 -5 -307 -293 -314 -322 -6 -24 -111 -197 -142
-233 -11 -14 -16 -15 -22 -5 -9 16 -69 222 -69 237 0 6 14 11 31 11 28 0 31 3
27 25 -3 13 -2 22 3 20 13 -9 56 58 61 93 4 24 -1 39 -18 58 -13 13 -22 26
-21 27 1 2 -13 25 -30 52 -23 35 -33 44 -33 30 0 -16 -2 -17 -9 -5 -6 8 -8 17
-5 21 2 4 -4 6 -14 5 -9 0 -16 4 -15 11 1 6 -12 16 -29 22 -44 16 -50 14 -38
-10 7 -11 10 -23 8 -25 -3 -2 -12 12 -21 30 -16 34 -16 35 11 52 46 29 180
164 236 238 72 94 166 246 200 325 16 35 41 109 56 163 30 107 33 113 49 103
17 -10 13 -25 -6 -18 -10 4 -14 2 -9 -5 3 -6 19 -10 35 -10 24 1 30 6 35 31 3
16 3 34 -1 40 -3 5 -2 7 4 4 16 -10 42 159 43 284 1 175 -57 407 -139 554 -16
28 -43 76 -60 108 -18 31 -37 57 -42 57 -5 0 -9 7 -9 16 0 12 -5 15 -22 9 -13
-4 -54 -9 -93 -12 -58 -4 -73 -2 -91 14 -11 10 -29 23 -40 29 -38 21 -78 93
-84 147 -4 47 -7 52 -27 50 -18 -2 -23 2 -23 21 0 15 -12 34 -30 49 -36 31
-37 37 -7 37 17 0 19 -2 7 -10 -12 -8 -12 -10 3 -16 28 -10 67 4 60 22 -5 13
-2 15 18 9 21 -7 22 -6 10 9 -7 9 -22 16 -32 16 -10 0 -21 5 -24 10 -4 6 -11
7 -17 4 -6 -4 -8 -3 -5 3 10 16 -32 48 -130 97 -255 127 -492 181 -768 174
-89 -3 -166 -7 -171 -11 -6 -3 -21 -8 -35 -10 -362 -68 -677 -273 -896 -582
-60 -85 -88 -129 -142 -225 -24 -41 -95 -284 -117 -402 -24 -121 -26 -147 -20
-298 6 -174 17 -252 31 -215 4 11 18 44 31 73 l24 53 42 -23 c70 -38 177 -146
210 -211 16 -32 27 -61 24 -64 -3 -3 -8 2 -12 11 -11 28 -31 18 -38 -19 -4
-20 -11 -33 -16 -30 -4 3 -11 -8 -15 -24 -3 -16 -12 -32 -19 -34 -9 -4 -12
-19 -9 -49 6 -54 -10 -146 -34 -196 -29 -62 -120 -144 -188 -170 -57 -21 -197
-34 -212 -18 -3 3 -12 1 -18 -4 -9 -8 -14 -6 -18 4 -3 9 -28 27 -56 40 -98 50
-171 172 -171 289 0 26 -4 37 -15 37 -10 0 -15 10 -15 29 0 32 -14 51 -60 78
-30 17 -35 29 -24 56 4 10 18 14 52 11 l47 -3 -48 11 c-42 10 -48 15 -56 47
-23 88 -34 253 -28 451 9 332 62 559 193 826 167 343 407 617 724 827 136 90
333 186 488 236 220 72 351 91 625 91 l189 0 21 -26 c19 -25 69 -51 152 -79
39 -14 125 -14 258 1 38 4 57 2 57 -5 0 -6 -4 -11 -8 -11 -5 0 -17 -6 -28 -14
-18 -14 -16 -15 23 -14 22 0 46 -3 52 -6 6 -4 20 -2 31 4 24 13 99 -8 78 -21
-7 -5 -19 -2 -27 4 -11 9 -13 9 -8 0 4 -6 3 -14 -3 -18 -5 -3 -10 -1 -10 6 0
8 -4 8 -12 1 -7 -6 -26 -12 -43 -15 l-30 -4 33 -2 c17 0 32 -5 32 -11 0 -5 9
-10 20 -10 31 0 23 -17 -11 -24 -45 -9 -49 -8 -49 9 0 8 -7 15 -15 15 -12 0
-13 -4 -3 -25 6 -14 17 -24 24 -21 6 2 17 -1 23 -7 6 -6 11 -7 11 -1 0 11 97
10 123 -1 10 -4 17 -3 17 4 0 6 9 11 20 11 11 0 20 5 20 10 0 6 -6 10 -12 10
-9 0 -8 4 2 10 12 8 8 10 -15 11 -23 1 -25 3 -8 6 12 2 35 -3 52 -11 37 -20
51 -39 24 -34 -11 2 -22 -1 -24 -7 -2 -5 11 -11 30 -13 21 -2 31 0 26 7 -10
16 3 13 46 -11 45 -25 47 -33 17 -65 -22 -24 -22 -24 -3 -59 17 -31 68 -83
164 -167 18 -16 30 -32 26 -35 -4 -4 -12 0 -18 9 -25 33 -215 159 -312 207
-236 118 -307 144 -527 192 -182 39 -329 54 -468 46 -63 -4 -124 -8 -135 -10
-11 -1 -45 -6 -75 -10 -110 -15 -126 -19 -305 -69 -80 -23 -222 -80 -322 -131
-51 -25 -102 -46 -113 -46 -11 0 -20 -5 -20 -11 0 -6 7 -9 15 -5 8 3 15 0 15
-6 0 -15 -31 -37 -53 -38 -9 0 -25 -9 -35 -21 -9 -11 -46 -40 -82 -64 -36 -24
-99 -76 -140 -115 -41 -39 -79 -74 -85 -78 -18 -13 -122 -155 -180 -247 -130
-207 -265 -523 -265 -623 0 -18 -5 -42 -10 -52 -18 -34 -40 -221 -40 -343 0
-143 25 -362 45 -391 8 -11 15 -31 15 -43 0 -13 5 -23 10 -23 6 0 10 21 10 46
0 25 5 77 12 115 13 80 10 78 132 119 l81 27 -3 77 -4 78 21 -21 c16 -16 26
-18 50 -11 16 4 32 5 35 2 4 -3 6 3 5 14 -4 37 1 55 13 48 7 -4 8 -3 4 5 -4 6
-3 26 3 44 6 17 15 64 21 102 5 39 17 108 26 155 9 47 16 93 16 103 -1 9 2 17
6 17 9 0 13 48 7 78 -4 15 -13 22 -29 22 -30 0 -86 -51 -86 -78 0 -12 -4 -24
-10 -27 -16 -10 -12 8 19 93 136 369 423 687 783 868 228 114 360 148 648 164
149 9 178 8 302 -12 75 -12 135 -25 132 -29 -2 -4 6 -10 18 -12 l23 -4 -22 -2
c-34 -2 -29 -36 10 -62 17 -13 37 -29 42 -35 6 -7 39 -20 75 -29 36 -9 79 -20
96 -25 39 -13 131 -13 138 -1 4 5 1 11 -6 13 -6 2 -8 9 -5 15 9 14 124 -48
218 -116 l66 -48 51 10 c124 26 297 -82 277 -173 -4 -16 -11 -30 -16 -30 -5 0
-9 -20 -9 -44 0 -40 2 -44 22 -38 16 4 19 2 13 -9 -5 -7 -9 -30 -8 -50 1 -38
-17 -53 -57 -50 -8 1 -21 -8 -28 -20 -12 -19 -12 -21 1 -16 36 14 97 30 100
26 44 -63 137 -247 137 -270 0 -15 -21 -10 -47 11 -33 26 -40 25 -47 -6 -5
-17 6 -60 30 -130 20 -58 34 -108 31 -110 -3 -3 2 -33 10 -67 21 -85 21 -331
-1 -462 -22 -131 -88 -347 -143 -465 -67 -144 -182 -311 -285 -411 -48 -47
-88 -89 -88 -93 0 -15 131 -205 174 -252 l43 -49 33 65 c19 37 61 93 101 134
82 86 150 169 211 262 420 635 390 1490 -74 2082 -27 35 -48 65 -46 66 2 1 19
14 38 28 19 14 133 98 252 187 180 134 222 161 247 159 23 -2 28 -5 19 -15 -6
-8 -8 -16 -4 -20 3 -3 6 -1 6 5 0 7 6 12 14 12 7 0 19 7 26 15 16 19 -24 77
-118 169 l-71 69 -53 -33 c-64 -40 -189 -129 -203 -144 -5 -6 -48 -41 -95 -78
-47 -37 -103 -83 -124 -102 -22 -19 -43 -33 -48 -30 -4 3 -8 29 -9 57 0 29 -3
83 -8 120 l-7 68 48 29 c27 17 76 50 110 75 62 45 114 65 67 25 l-24 -19 28
-1 c25 0 27 -3 27 -38 0 -30 5 -41 23 -50 12 -7 30 -10 39 -9 20 4 208 134
208 145 0 4 -30 34 -67 67 -368 331 -851 550 -1363 620 -166 22 -420 27 -575
10z m-996 -598 c-2 -1 -13 -9 -24 -17 -19 -14 -19 -14 -6 3 7 9 18 17 24 17 6
0 8 -1 6 -3z m2089 -36 c11 -6 9 -9 -5 -13 -11 -3 -28 1 -38 8 -18 13 -17 14
6 14 13 0 30 -4 37 -9z m-2168 -15 c0 -3 -4 -8 -10 -11 -5 -3 -10 -1 -10 4 0
6 5 11 10 11 6 0 10 -2 10 -4z m2137 -32 c-3 -3 -12 -4 -19 -1 -8 3 -5 6 6 6
11 1 17 -2 13 -5z m-384 -271 c-7 -2 -19 -2 -25 0 -7 3 -2 5 12 5 14 0 19 -2
13 -5z m252 -103 c3 -5 1 -10 -4 -10 -6 0 -11 5 -11 10 0 6 2 10 4 10 3 0 8
-4 11 -10z m-787 -228 c2 -7 -3 -12 -12 -12 -9 0 -16 7 -16 16 0 17 22 14 28
-4z m742 8 c0 -5 -7 -7 -15 -4 -8 4 -15 8 -15 10 0 2 7 4 15 4 8 0 15 -4 15
-10z m105 -60 c3 -6 -1 -7 -9 -4 -18 7 -21 14 -7 14 6 0 13 -4 16 -10z m-455
-357 c-36 -197 -35 -324 2 -673 22 -211 22 -251 -1 -328 -27 -88 -22 -122 5
-39 22 71 28 59 38 -68 4 -49 16 -157 26 -240 10 -82 22 -203 25 -267 4 -65
10 -118 14 -118 4 0 13 30 20 68 6 37 21 85 31 107 11 22 45 105 75 185 31 80
63 161 73 180 l17 35 3 -44 c2 -24 -1 -47 -6 -50 -6 -3 -12 -19 -15 -36 -3
-16 -11 -47 -17 -69 -6 -21 -9 -68 -7 -105 12 -165 27 -333 36 -406 6 -44 15
-154 21 -245 7 -91 18 -229 26 -307 8 -78 14 -155 14 -170 l-1 -28 -18 34
c-10 19 -20 29 -22 23 -5 -14 -276 -32 -344 -23 -67 9 -173 -43 -201 -98 -7
-14 -14 -19 -19 -12 -7 12 -25 6 -25 -8 0 -4 12 -13 27 -20 l27 -12 -79 -52
c-44 -29 -96 -64 -116 -80 -20 -15 -39 -27 -42 -27 -4 0 -21 -15 -39 -33 -36
-35 -101 -87 -111 -87 -3 0 13 18 35 40 23 22 45 40 50 40 4 0 8 7 8 16 0 11
-6 14 -20 9 -25 -8 -62 3 -55 16 4 5 -1 9 -9 9 -9 0 -16 7 -16 16 0 9 -6 14
-13 11 -10 -4 -12 3 -9 24 l4 29 -51 -5 c-29 -2 -75 -15 -104 -29 -29 -14 -73
-32 -97 -40 l-44 -15 29 24 c17 14 45 32 63 42 19 9 37 25 41 35 4 11 10 19
14 18 17 -3 67 12 67 21 0 12 -33 12 -48 -1 -9 -7 -9 -7 -2 2 17 21 11 32 -8
15 -10 -10 -22 -17 -25 -17 -4 0 -44 -20 -88 -45 -45 -25 -94 -48 -108 -52
-23 -6 -25 -5 -13 10 8 9 42 32 75 51 64 36 135 90 106 80 -10 -3 -20 -1 -24
5 -3 6 -2 11 3 11 5 0 12 11 14 25 5 21 1 25 -19 25 -18 0 -24 4 -19 15 3 9 0
15 -9 15 -8 0 -15 -4 -15 -10 0 -5 -5 -10 -10 -10 -7 0 -7 6 0 20 7 14 7 20 0
20 -5 0 -10 -5 -10 -11 0 -6 -7 -8 -16 -5 -9 3 -25 -4 -40 -19 -29 -29 -36
-31 -27 -9 3 9 -21 -3 -56 -27 -64 -44 -98 -46 -46 -3 167 138 321 294 291
294 -8 0 -26 -11 -40 -25 -21 -21 -48 -30 -78 -27 -3 1 -12 -5 -18 -13 -17
-21 -50 -19 -51 3 0 14 -2 14 -9 -3 l-9 -20 -1 20 c-2 11 -2 24 -1 29 1 5 -5
4 -13 -3 -8 -7 -17 -31 -21 -54 -15 -99 -18 -107 -32 -107 -13 0 -15 9 -9 53
10 79 16 120 22 137 3 8 8 33 10 55 3 22 7 51 10 65 2 14 13 84 24 155 31 196
50 311 65 400 23 134 28 187 17 194 -6 3 -13 18 -17 32 -5 21 -1 29 20 43 15
10 43 19 62 21 20 2 39 7 42 12 3 5 14 12 24 16 9 3 17 14 17 23 0 14 -2 15
-17 3 -14 -12 -16 -12 -11 1 2 8 14 20 26 26 12 6 19 14 16 17 -4 4 2 10 12
14 10 4 25 14 32 22 8 9 11 10 7 4 -3 -7 -1 -13 4 -13 6 0 11 4 11 10 0 5 12
12 28 16 54 12 62 16 62 29 0 9 -8 12 -20 10 -12 -2 -20 1 -19 8 1 7 0 21 -1
32 -2 17 -3 17 -11 -5 -6 -17 -6 -11 -2 20 3 25 9 69 12 98 6 53 24 72 29 30
2 -13 5 -30 8 -38 4 -13 6 -13 14 0 14 21 12 32 -2 24 -9 -5 -9 -2 1 9 7 9 10
17 5 17 -5 0 -4 4 2 8 14 8 31 184 18 181 -5 -1 -17 1 -27 6 -16 7 -15 9 7 30
14 13 22 26 19 29 -4 3 1 6 9 6 17 0 28 57 28 146 0 30 5 54 10 54 6 0 10 9
10 20 0 12 -7 20 -17 20 -14 0 -13 3 6 21 29 27 26 80 -6 94 -33 14 -28 38 15
73 20 17 122 103 226 191 104 88 192 159 195 158 4 -1 24 17 45 41 49 54 61
41 46 -45z m-1222 -66 c4 -20 -25 -34 -40 -19 -15 15 -1 44 19 40 10 -2 19
-11 21 -21z m1662 -517 c8 -15 7 -21 -7 -28 -24 -12 -43 -4 -43 18 0 16 12 27
32 29 4 1 12 -8 18 -19z m151 -225 c-1 -15 -24 -12 -29 3 -3 9 2 13 12 10 10
-1 17 -7 17 -13z m-1841 -79 c0 -20 -19 -31 -32 -18 -6 6 -7 15 -4 21 10 16
36 13 36 -3z m637 -51 c0 -8 -4 -15 -9 -15 -10 0 -11 14 -1 23 9 10 10 9 10
-8z m1148 -465 c0 -7 -6 -15 -12 -17 -8 -3 -13 4 -13 17 0 13 5 20 13 18 6 -3
12 -11 12 -18z m-2835 -175 c14 -8 35 -14 48 -15 12 0 25 -6 28 -14 6 -17 -56
-79 -95 -96 -17 -7 -36 -19 -43 -27 -10 -13 -179 -135 -215 -157 -33 -19 -5 9
72 75 47 39 85 75 85 79 0 5 -4 19 -9 32 -5 13 -9 27 -9 32 0 5 -6 12 -12 16
-7 5 10 22 47 49 64 46 67 46 103 26z m829 -128 l24 -28 21 42 c11 23 24 42
27 43 3 1 32 -30 64 -67 32 -38 91 -95 132 -127 l75 -59 -39 -15 c-61 -25 -67
-30 -95 -87 -16 -32 -28 -46 -28 -34 0 11 4 27 10 35 5 9 5 19 -2 27 -8 10 -5
15 12 21 21 8 20 10 -26 44 -27 20 -65 53 -84 74 -51 55 -150 187 -149 199 0
6 8 -1 17 -15 9 -13 28 -37 41 -53z m-325 -169 c-3 -4 8 -20 23 -37 46 -49 54
-61 44 -61 -12 0 -111 117 -111 131 0 5 11 2 24 -8 13 -10 22 -21 20 -25z
m156 -82 c22 -27 -5 -17 -31 10 -21 24 -22 26 -3 16 11 -6 26 -18 34 -26z
m-50 -38 c0 -17 175 -185 201 -193 12 -4 34 -18 48 -31 14 -13 30 -24 35 -24
6 0 1 7 -10 15 -10 8 -14 15 -8 15 16 0 37 -27 30 -39 -12 -19 17 -24 32 -5
13 18 14 17 8 -8 -3 -15 -2 -46 3 -68 5 -22 5 -40 1 -40 -5 0 -11 18 -15 39
-4 26 -15 45 -31 56 -30 19 -172 133 -238 191 -27 23 -55 40 -62 37 -8 -3 -13
2 -12 14 0 10 -3 26 -7 36 -5 12 -3 17 9 17 9 0 16 -5 16 -12z m3544 -43 c-4
-8 -11 -15 -16 -15 -6 0 -5 6 2 15 7 8 14 15 16 15 2 0 1 -7 -2 -15z m-19 -35
c-3 -5 -11 -10 -16 -10 -6 0 -7 5 -4 10 3 6 11 10 16 10 6 0 7 -4 4 -10z
m-142 -190 c-20 -27 -39 -47 -41 -45 -6 6 60 94 71 95 4 0 -9 -22 -30 -50z
m-2753 -334 c0 -3 -4 -8 -10 -11 -5 -3 -10 -1 -10 4 0 6 5 11 10 11 6 0 10 -2
10 -4z m2275 -162 c-44 -37 -195 -137 -200 -132 -2 2 38 32 90 66 51 35 99 70
105 77 7 8 18 15 24 15 6 -1 -2 -12 -19 -26z m-2920 -50 c41 -37 38 -36 -27 5
-40 24 -46 31 -25 31 6 -1 30 -17 52 -36z m1075 -24 c12 -8 11 -10 -7 -10 -13
0 -23 5 -23 10 0 13 11 13 30 0z m1030 2 c0 -5 -11 -15 -25 -22 -13 -7 -22
-18 -18 -23 3 -6 1 -7 -6 -3 -6 4 -17 3 -24 -3 -7 -5 -51 -26 -97 -46 -47 -20
-106 -47 -132 -60 -26 -14 -62 -25 -80 -24 -18 0 -26 3 -18 6 8 4 21 12 28 20
7 7 19 13 25 13 7 0 6 -4 -3 -10 -8 -5 -10 -10 -5 -10 14 0 43 20 30 20 -11 1
108 45 164 62 19 5 62 27 95 48 72 45 66 42 66 32z m-992 -61 c11 -7 11 -9 -1
-14 -9 -3 -21 1 -27 9 -10 11 -10 14 1 14 8 0 20 -4 27 -9z"/>
<path fill="#EDC86B" d="M2783 3418 c-4 -7 -17 -18 -28 -24 -25 -14 -45 -66 -28 -71 7 -2 9
-11 6 -19 -3 -8 0 -14 6 -14 6 0 11 3 11 8 0 4 11 20 25 36 16 19 24 39 23 62
-1 37 -3 40 -15 22z"/>
<path fill="#EDC86B" d="M3066 1380 c-14 -22 -26 -43 -26 -47 0 -4 6 1 13 12 33 48 49 75 44
75 -2 0 -16 -18 -31 -40z"/>
<path fill="#EDC86B" d="M2215 1220 c-10 -11 -15 -20 -11 -20 11 0 39 30 34 36 -3 2 -13 -5
-23 -16z"/>
<path fill="#EDC86B" d="M2180 1175 c-7 -9 -8 -15 -2 -15 5 0 12 7 16 15 3 8 4 15 2 15 -2 0
-9 -7 -16 -15z"/>
<path fill="#EDC86B" d="M2006 909 c-16 -16 -24 -29 -18 -29 7 0 21 9 31 19 11 11 22 17 25
14 3 -4 6 -1 6 5 0 22 -16 19 -44 -9z"/>
<path fill="#EDC86B" d="M2060 930 c0 -5 5 -10 10 -10 6 0 10 5 10 10 0 6 -4 10 -10 10 -5 0
-10 -4 -10 -10z"/>
<path fill="#EDC86B" d="M2584 683 c-12 -2 -24 -13 -27 -24 -7 -26 6 -24 40 6 28 24 27 26
-13 18z"/>
<path fill="#EDC86B" d="M2323 523 c9 -2 23 -2 30 0 6 3 -1 5 -18 5 -16 0 -22 -2 -12 -5z"/>
<path fill="#EDC86B" d="M3270 4500 c-8 -5 -11 -12 -7 -16 4 -4 15 0 24 9 18 18 8 23 -17 7z"/>
<path fill="#EDC86B" d="M3583 3800 c-32 -7 -83 -36 -83 -46 0 -3 6 -2 13 2 8 5 8 3 -2 -9 -7
-9 -17 -15 -21 -12 -11 7 -23 -51 -23 -117 -1 -72 32 -126 95 -157 57 -27 101
-26 165 3 62 29 92 79 100 165 5 52 3 60 -29 101 -54 72 -119 93 -215 70z
m117 -115 c0 -8 -4 -15 -10 -15 -5 0 -10 7 -10 15 0 8 5 15 10 15 6 0 10 -7
10 -15z"/>
<path fill="#EDC86B" d="M503 2765 c-3 -9 -3 -18 -1 -21 3 -3 8 4 11 16 6 23 -1 27 -10 5z"/>
<path fill="#EDC86B" d="M3930 2298 c0 -12 3 -17 8 -12 4 5 11 12 15 15 5 3 2 9 -7 12 -12 5
-16 0 -16 -15z"/>
<path fill="#EDC86B" d="M940 2296 c-75 -14 -121 -34 -172 -76 -54 -45 -111 -180 -76 -180 12
0 16 -17 20 -72 6 -86 23 -128 79 -185 60 -62 112 -84 202 -84 64 0 83 4 136
30 69 35 83 38 74 15 -5 -15 -3 -15 20 1 52 33 102 171 94 257 -11 120 -99
235 -212 277 -78 29 -93 31 -165 17z m-22 -193 c-2 -10 -10 -18 -18 -18 -8 0
-16 8 -18 18 -2 12 3 17 18 17 15 0 20 -5 18 -17z"/>
</g>
</svg>
